<svg xmlns="http://www.w3.org/2000/svg" xmlns:xlink="http://www.w3.org/1999/xlink" id="processonSvg1000" viewBox="126.56393169512475 75.57142857142854 737.7217825905897 1044.1428571428573" width="737.7217825905897" height="1044.1428571428573"><defs id="ProcessOnDefs1001"><marker id="ProcessOnMarker1007" markerUnits="userSpaceOnUse" orient="auto" markerWidth="16.23606797749979" markerHeight="10.550836550532098" viewBox="-1.0 -1.3763819204711736 16.23606797749979 10.550836550532098" refX="-1.0" refY="3.8990363547948754"><path id="ProcessOnPath1008" d="M12.0 3.8990363547948754L0.0 7.798072709589751V0.0Z" stroke="#323232" stroke-width="2.0" fill="#323232" transform="matrix(1.0,0.0,0.0,1.0,0.0,0.0)"/></marker><marker id="ProcessOnMarker1024" markerUnits="userSpaceOnUse" orient="auto" markerWidth="16.23606797749979" markerHeight="10.550836550532098" viewBox="-1.0 -1.3763819204711736 16.23606797749979 10.550836550532098" refX="-1.0" refY="3.8990363547948754"><path id="ProcessOnPath1025" d="M12.0 3.8990363547948754L0.0 7.798072709589751V0.0Z" stroke="#323232" stroke-width="2.0" fill="#323232" transform="matrix(1.0,0.0,0.0,1.0,0.0,0.0)"/></marker><marker id="ProcessOnMarker1031" markerUnits="userSpaceOnUse" orient="auto" markerWidth="16.23606797749979" markerHeight="10.550836550532098" viewBox="-1.0 -1.3763819204711736 16.23606797749979 10.550836550532098" refX="-1.0" refY="3.8990363547948754"><path id="ProcessOnPath1032" d="M12.0 3.8990363547948754L0.0 7.798072709589751V0.0Z" stroke="#323232" stroke-width="2.0" fill="#323232" transform="matrix(1.0,0.0,0.0,1.0,0.0,0.0)"/></marker><marker id="ProcessOnMarker1119" markerUnits="userSpaceOnUse" orient="auto" markerWidth="16.23606797749979" markerHeight="10.550836550532098" viewBox="-1.0 -1.3763819204711736 16.23606797749979 10.550836550532098" refX="-1.0" refY="3.8990363547948754"><path id="ProcessOnPath1120" d="M12.0 3.8990363547948754L0.0 7.798072709589751V0.0Z" stroke="#323232" stroke-width="2.0" fill="#323232" transform="matrix(1.0,0.0,0.0,1.0,0.0,0.0)"/></marker></defs><g id="ProcessOnG1002"><path id="ProcessOnPath1003" d="M126.56393169512475 75.57142857142854H864.2857142857144V1119.7142857142858H126.56393169512478V75.57142857142844Z" fill="none"/><g id="ProcessOnG1004"><g id="ProcessOnG1005"><path id="ProcessOnPath1006" d="M781.0343562254099 196.4858475800017L781.0343562254099 137.84505548879608L605.9741955243372 137.84505548879608" stroke="#323232" stroke-width="2.0" stroke-dasharray="none" fill="none" marker-end="url(#ProcessOnMarker1007)"/></g><g id="ProcessOnG1009" transform="matrix(1.0,0.0,0.0,1.0,464.2354114262287,95.57142857142854)" opacity="1.0"><path id="ProcessOnPath1010" d="M0.0 0.0L126.5027161206084 0.0L126.5027161206084 84.5472538347352L0.0 84.5472538347352Z" stroke="#323232" stroke-width="2.0" stroke-dasharray="none" opacity="1.0" fill="#ffffff"/><g id="ProcessOnG1011" transform="matrix(1.0,0.0,0.0,1.0,10.0,34.1486269173676)"><text id="ProcessOnText1012" fill="#000000" font-weight="normal" font-style="normal" text-decoration="none" font-family="微软雅黑" text-anchor="middle" font-size="13" x="52.2513580603042" y="13.325">Controller</text></g></g><g id="ProcessOnG1013" transform="matrix(1.0,0.0,0.0,1.0,717.782998165106,196.4858475800017)" opacity="1.0"><path id="ProcessOnPath1014" d="M0.0 0.0L126.5027161206084 0.0L126.5027161206084 84.5472538347352L0.0 84.5472538347352Z" stroke="#323232" stroke-width="2.0" stroke-dasharray="none" opacity="1.0" fill="#ffffff"/><g id="ProcessOnG1015" transform="matrix(1.0,0.0,0.0,1.0,10.0,34.1486269173676)"><text id="ProcessOnText1016" fill="#000000" font-weight="normal" font-style="normal" text-decoration="none" font-family="微软雅黑" text-anchor="middle" font-size="13" x="52.2513580603042" y="13.325">Gui</text></g></g><g id="ProcessOnG1017" transform="matrix(1.0,0.0,0.0,1.0,239.7834493950918,199.44376899696044)" opacity="1.0"><path id="ProcessOnPath1018" d="M0.0 0.0L126.5027161206084 0.0L126.5027161206084 84.5472538347352L0.0 84.5472538347352Z" stroke="#323232" stroke-width="2.0" stroke-dasharray="none" opacity="1.0" fill="#ffffff"/><g id="ProcessOnG1019" transform="matrix(1.0,0.0,0.0,1.0,10.0,26.0236269173676)"><text id="ProcessOnText1020" fill="#000000" font-weight="normal" font-style="normal" text-decoration="none" font-family="微软雅黑" text-anchor="middle" font-size="13" x="52.2513580603042" y="13.325">Core</text><text id="ProcessOnText1021" fill="#000000" font-weight="normal" font-style="normal" text-decoration="none" font-family="微软雅黑" text-anchor="middle" font-size="13" x="52.2513580603042" y="29.575">Sdk wrapper</text></g></g><g id="ProcessOnG1022"><path id="ProcessOnPath1023" d="M590.738127546838 137.84505548879608L781.0343562254099 137.84505548879608L781.0343562254099 181.2497796025019" stroke="#323232" stroke-width="2.0" stroke-dasharray="none" fill="none" marker-end="url(#ProcessOnMarker1024)"/><g id="ProcessOnG1026" transform="matrix(1.0,0.0,0.0,1.0,707.5886039429768,129.72005548879608)"><path id="ProcessOnPath1027" d="M0 0H67.0V16.25H0Z" fill="#fff" transform="matrix(1.0,0.0,0.0,1.0,-33.5,0.0)"/><text id="ProcessOnText1028" fill="#000000" font-weight="normal" font-style="normal" text-decoration="none" font-family="微软雅黑" text-anchor="middle" font-size="13" x="0.0" y="13.325">Signal/Slot</text></g></g><g id="ProcessOnG1029"><path id="ProcessOnPath1030" d="M464.2354114262287 137.84505548879608L303.03480745539633 137.84505548879608L303.03480745539633 184.20770101946064" stroke="#323232" stroke-width="2.0" stroke-dasharray="none" fill="none" marker-end="url(#ProcessOnMarker1031)"/><g id="ProcessOnG1033" transform="matrix(1.0,0.0,0.0,1.0,360.4537866754803,129.72005548879608)"><path id="ProcessOnPath1034" d="M0 0H22.0V16.25H0Z" fill="#fff" transform="matrix(1.0,0.0,0.0,1.0,-11.0,0.0)"/><text id="ProcessOnText1035" fill="#000000" font-weight="normal" font-style="normal" text-decoration="none" font-family="微软雅黑" text-anchor="middle" font-size="13" x="0.0" y="13.325">Call</text></g></g><g id="ProcessOnG1036" transform="matrix(1.0,0.0,0.0,1.0,237.74885464389743,699.9999999999997)" opacity="1.0"><path id="ProcessOnPath1037" d="M0.0 0.0L581.3223656809671 0.0L581.3223656809671 58.5714285714281L0.0 58.5714285714281Z" stroke="#323232" stroke-width="2.0" stroke-dasharray="none" opacity="1.0" fill="#ffffff"/><g id="ProcessOnG1038" transform="matrix(1.0,0.0,0.0,1.0,10.0,21.16071428571405)"><text id="ProcessOnText1039" fill="#000000" font-weight="normal" font-style="normal" text-decoration="none" font-family="微软雅黑" text-anchor="middle" font-size="13" x="279.66118284048355" y="13.325">Skin</text></g></g><g id="ProcessOnG1040" transform="matrix(1.0,0.0,0.0,1.0,237.01582673885812,609.2857142857138)" opacity="1.0"><path id="ProcessOnPath1041" d="M0.0 0.0L582.0553935860064 0.0L582.0553935860064 70.71428571428567L0.0 70.71428571428567Z" stroke="#323232" stroke-width="2.0" stroke-dasharray="none" opacity="1.0" fill="#ffffff"/><g id="ProcessOnG1042" transform="matrix(1.0,0.0,0.0,1.0,10.0,27.232142857142833)"><text id="ProcessOnText1043" fill="#000000" font-weight="normal" font-style="normal" text-decoration="none" font-family="微软雅黑" text-anchor="middle" font-size="13" x="280.0276967930032" y="13.325">Widgets</text></g></g><g id="ProcessOnG1044" transform="matrix(1.0,0.0,0.0,1.0,237.01582673885812,519.2857142857141)" opacity="1.0"><path id="ProcessOnPath1045" d="M0.0 0.0L100.0 0.0L100.0 70.0L0.0 70.0Z" stroke="#323232" stroke-width="2.0" stroke-dasharray="none" opacity="1.0" fill="#ffffff"/><g id="ProcessOnG1046" transform="matrix(1.0,0.0,0.0,1.0,10.0,18.75)"><text id="ProcessOnText1047" fill="#000000" font-weight="normal" font-style="normal" text-decoration="none" font-family="微软雅黑" text-anchor="middle" font-size="13" x="39.0" y="13.325">Main </text><text id="ProcessOnText1048" fill="#000000" font-weight="normal" font-style="normal" text-decoration="none" font-family="微软雅黑" text-anchor="middle" font-size="13" x="39.0" y="29.575">window</text></g></g><g id="ProcessOnG1049" transform="matrix(1.0,0.0,0.0,1.0,357.52967513535884,519.2857142857141)" opacity="1.0"><path id="ProcessOnPath1050" d="M0.0 0.0L100.0 0.0L100.0 70.0L0.0 70.0Z" stroke="#323232" stroke-width="2.0" stroke-dasharray="none" opacity="1.0" fill="#ffffff"/><g id="ProcessOnG1051" transform="matrix(1.0,0.0,0.0,1.0,10.0,18.75)"><text id="ProcessOnText1052" fill="#000000" font-weight="normal" font-style="normal" text-decoration="none" font-family="微软雅黑" text-anchor="middle" font-size="13" x="39.0" y="13.325">Playlist </text><text id="ProcessOnText1053" fill="#000000" font-weight="normal" font-style="normal" text-decoration="none" font-family="微软雅黑" text-anchor="middle" font-size="13" x="39.0" y="29.575">window</text></g></g><g id="ProcessOnG1054" transform="matrix(1.0,0.0,0.0,1.0,478.0435235318608,519.2857142857141)" opacity="1.0"><path id="ProcessOnPath1055" d="M0.0 0.0L100.0 0.0L100.0 70.0L0.0 70.0Z" stroke="#323232" stroke-width="2.0" stroke-dasharray="none" opacity="1.0" fill="#ffffff"/><g id="ProcessOnG1056" transform="matrix(1.0,0.0,0.0,1.0,10.0,18.75)"><text id="ProcessOnText1057" fill="#000000" font-weight="normal" font-style="normal" text-decoration="none" font-family="微软雅黑" text-anchor="middle" font-size="13" x="39.0" y="13.325">Lyric </text><text id="ProcessOnText1058" fill="#000000" font-weight="normal" font-style="normal" text-decoration="none" font-family="微软雅黑" text-anchor="middle" font-size="13" x="39.0" y="29.575">window</text></g></g><g id="ProcessOnG1059" transform="matrix(1.0,0.0,0.0,1.0,598.557371928363,519.2857142857141)" opacity="1.0"><path id="ProcessOnPath1060" d="M0.0 0.0L100.0 0.0L100.0 70.0L0.0 70.0Z" stroke="#323232" stroke-width="2.0" stroke-dasharray="none" opacity="1.0" fill="#ffffff"/><g id="ProcessOnG1061" transform="matrix(1.0,0.0,0.0,1.0,10.0,26.875)"><text id="ProcessOnText1062" fill="#000000" font-weight="normal" font-style="normal" text-decoration="none" font-family="微软雅黑" text-anchor="middle" font-size="13" x="39.0" y="13.325">Mini window</text></g></g><g id="ProcessOnG1063" transform="matrix(1.0,0.0,0.0,1.0,719.0712203248638,519.2857142857141)" opacity="1.0"><path id="ProcessOnPath1064" d="M0.0 0.0L100.0 0.0L100.0 70.0L0.0 70.0Z" stroke="#323232" stroke-width="2.0" stroke-dasharray="none" opacity="1.0" fill="#ffffff"/><g id="ProcessOnG1065" transform="matrix(1.0,0.0,0.0,1.0,10.0,26.875)"><text id="ProcessOnText1066" fill="#000000" font-weight="normal" font-style="normal" text-decoration="none" font-family="微软雅黑" text-anchor="middle" font-size="13" x="39.0" y="13.325">Desktop bar</text></g></g><g id="ProcessOnG1067" transform="matrix(1.0,0.0,0.0,1.0,239.80882965430817,851.9999999999999)" opacity="1.0"><path id="ProcessOnPath1068" d="M0.0 0.0L146.8571428571429 0.0L146.8571428571429 70.0L0.0 70.0Z" stroke="#323232" stroke-width="2.0" stroke-dasharray="none" opacity="1.0" fill="#ffffff"/><g id="ProcessOnG1069" transform="matrix(1.0,0.0,0.0,1.0,10.0,26.875)"><text id="ProcessOnText1070" fill="#000000" font-weight="normal" font-style="normal" text-decoration="none" font-family="微软雅黑" text-anchor="middle" font-size="13" x="62.428571428571445" y="13.325">PlayerCore</text></g></g><g id="ProcessOnG1071" transform="matrix(1.0,0.0,0.0,1.0,413.8088296543084,851.9999999999999)" opacity="1.0"><path id="ProcessOnPath1072" d="M0.0 0.0L262.8571428571429 0.0L262.8571428571429 70.0L0.0 70.0Z" stroke="#323232" stroke-width="2.0" stroke-dasharray="none" opacity="1.0" fill="#ffffff"/><g id="ProcessOnG1073" transform="matrix(1.0,0.0,0.0,1.0,10.0,26.875)"><text id="ProcessOnText1074" fill="#000000" font-weight="normal" font-style="normal" text-decoration="none" font-family="微软雅黑" text-anchor="middle" font-size="13" x="120.42857142857144" y="13.325">PlaylistCore</text></g></g><g id="ProcessOnG1075" transform="matrix(1.0,0.0,0.0,1.0,239.80882965430817,947.7142857142856)" opacity="1.0"><path id="ProcessOnPath1076" d="M0.0 0.0L575.0 0.0L575.0 56.0L0.0 56.0Z" stroke="#323232" stroke-width="2.0" stroke-dasharray="none" opacity="1.0" fill="#ffffff"/><g id="ProcessOnG1077" transform="matrix(1.0,0.0,0.0,1.0,10.0,19.875)"><text id="ProcessOnText1078" fill="#000000" font-weight="normal" font-style="normal" text-decoration="none" font-family="微软雅黑" text-anchor="middle" font-size="13" x="276.5" y="13.325"> Backend plugin dispatcher</text></g></g><g id="ProcessOnG1079" transform="matrix(1.0,0.0,0.0,1.0,239.80882965430817,1029.7142857142856)" opacity="1.0"><path id="ProcessOnPath1080" d="M0.0 0.0L100.0 0.0L100.0 70.0L0.0 70.0Z" stroke="#323232" stroke-width="2.0" stroke-dasharray="none" opacity="1.0" fill="#ffffff"/><g id="ProcessOnG1081" transform="matrix(1.0,0.0,0.0,1.0,10.0,26.875)"><text id="ProcessOnText1082" fill="#000000" font-weight="normal" font-style="normal" text-decoration="none" font-family="微软雅黑" text-anchor="middle" font-size="13" x="39.0" y="13.325">Plugin1</text></g></g><g id="ProcessOnG1083" transform="matrix(1.0,0.0,0.0,1.0,363.80882965430834,1029.7142857142856)" opacity="1.0"><path id="ProcessOnPath1084" d="M0.0 0.0L100.0 0.0L100.0 70.0L0.0 70.0Z" stroke="#323232" stroke-width="2.0" stroke-dasharray="none" opacity="1.0" fill="#ffffff"/><g id="ProcessOnG1085" transform="matrix(1.0,0.0,0.0,1.0,10.0,26.875)"><text id="ProcessOnText1086" fill="#000000" font-weight="normal" font-style="normal" text-decoration="none" font-family="微软雅黑" text-anchor="middle" font-size="13" x="39.0" y="13.325">Plugin2</text></g></g><g id="ProcessOnG1087" transform="matrix(1.0,0.0,0.0,1.0,480.8088296543084,1029.7142857142856)" opacity="1.0"><path id="ProcessOnPath1088" d="M0.0 0.0L100.0 0.0L100.0 70.0L0.0 70.0Z" stroke="#323232" stroke-width="2.0" stroke-dasharray="none" opacity="1.0" fill="#ffffff"/><g id="ProcessOnG1089" transform="matrix(1.0,0.0,0.0,1.0,10.0,26.875)"><text id="ProcessOnText1090" fill="#000000" font-weight="normal" font-style="normal" text-decoration="none" font-family="微软雅黑" text-anchor="middle" font-size="13" x="39.0" y="13.325">Plugin3</text></g></g><g id="ProcessOnG1091" transform="matrix(1.0,0.0,0.0,1.0,595.8088296543079,1029.7142857142856)" opacity="1.0"><path id="ProcessOnPath1092" d="M0.0 0.0L100.0 0.0L100.0 70.0L0.0 70.0Z" stroke="#323232" stroke-width="2.0" stroke-dasharray="none" opacity="1.0" fill="#ffffff"/><g id="ProcessOnG1093" transform="matrix(1.0,0.0,0.0,1.0,10.0,26.875)"><text id="ProcessOnText1094" fill="#000000" font-weight="normal" font-style="normal" text-decoration="none" font-family="微软雅黑" text-anchor="middle" font-size="13" x="39.0" y="13.325">Plugin4</text></g></g><g id="ProcessOnG1095" transform="matrix(1.0,0.0,0.0,1.0,714.8088296543079,1029.7142857142856)" opacity="1.0"><path id="ProcessOnPath1096" d="M0.0 0.0L100.0 0.0L100.0 70.0L0.0 70.0Z" stroke="#323232" stroke-width="2.0" stroke-dasharray="none" opacity="1.0" fill="#ffffff"/><g id="ProcessOnG1097" transform="matrix(1.0,0.0,0.0,1.0,10.0,26.875)"><text id="ProcessOnText1098" fill="#000000" font-weight="normal" font-style="normal" text-decoration="none" font-family="微软雅黑" text-anchor="middle" font-size="13" x="39.0" y="13.325">......</text></g></g><g id="ProcessOnG1099" transform="matrix(1.0,0.0,0.0,1.0,699.5231153685937,851.9999999999999)" opacity="1.0"><path id="ProcessOnPath1100" d="M0.0 0.0L115.28571428571422 0.0L115.28571428571422 70.0L0.0 70.0Z" stroke="#323232" stroke-width="2.0" stroke-dasharray="none" opacity="1.0" fill="#ffffff"/><g id="ProcessOnG1101" transform="matrix(1.0,0.0,0.0,1.0,10.0,26.875)"><text id="ProcessOnText1102" fill="#000000" font-weight="normal" font-style="normal" text-decoration="none" font-family="微软雅黑" text-anchor="middle" font-size="13" x="46.64285714285711" y="13.325">ExportCore</text></g></g><g id="ProcessOnG1103" transform="matrix(1.0,0.0,0.0,1.0,147.0842506098623,95.57142857142854)" opacity="1.0"><path id="ProcessOnPath1104" d="M13.553862441493756 0.0L0.0 0.0L0.0 231.3834028415917L13.553862441493756 231.3834028415917" stroke="#323232" stroke-width="2.0" stroke-dasharray="none" opacity="1.0" fill="none"/><path id="ProcessOnPath1105" d="M0.0 0.0L81.32317464896254 0.0L81.32317464896254 231.3834028415917L0.0 231.3834028415917Z" stroke="#323232" stroke-width="0.0" stroke-dasharray="none" opacity="1.0" fill="none"/><g id="ProcessOnG1106" transform="matrix(1.0,0.0,0.0,1.0,10.0,107.56670142079585)"><text id="ProcessOnText1107" fill="#000000" font-weight="normal" font-style="normal" text-decoration="none" font-family="微软雅黑" text-anchor="middle" font-size="13" x="29.661587324481268" y="13.325">App</text></g></g><g id="ProcessOnG1108" transform="matrix(1.0,0.0,0.0,1.0,146.56393169512475,852.0)" opacity="1.0"><path id="ProcessOnPath1109" d="M14.04761904761905 0.0L0.0 0.0L0.0 247.71428571428567L14.04761904761905 247.71428571428567" stroke="#323232" stroke-width="2.0" stroke-dasharray="none" opacity="1.0" fill="none"/><path id="ProcessOnPath1110" d="M0.0 0.0L84.28571428571429 0.0L84.28571428571429 247.71428571428567L0.0 247.71428571428567Z" stroke="#323232" stroke-width="0.0" stroke-dasharray="none" opacity="1.0" fill="none"/><g id="ProcessOnG1111" transform="matrix(1.0,0.0,0.0,1.0,10.0,115.73214285714283)"><text id="ProcessOnText1112" fill="#000000" font-weight="normal" font-style="normal" text-decoration="none" font-family="微软雅黑" text-anchor="middle" font-size="13" x="31.142857142857146" y="13.325">SDK</text></g></g><g id="ProcessOnG1113" transform="matrix(1.0,0.0,0.0,1.0,239.28002021869344,359.7384604509791)" opacity="1.0"><path id="ProcessOnPath1114" d="M0.0 0.0L126.5027161206084 0.0L126.5027161206084 84.5472538347352L0.0 84.5472538347352Z" stroke="#323232" stroke-width="2.0" stroke-dasharray="none" opacity="1.0" fill="#ffffff"/><g id="ProcessOnG1115" transform="matrix(1.0,0.0,0.0,1.0,10.0,34.1486269173676)"><text id="ProcessOnText1116" fill="#000000" font-weight="normal" font-style="normal" text-decoration="none" font-family="微软雅黑" text-anchor="middle" font-size="13" x="52.2513580603042" y="13.325">SDK</text></g></g><g id="ProcessOnG1117"><path id="ProcessOnPath1118" d="M303.0348074553962 283.99102283169583L303.0348074553962 321.8647416413375L302.53137827899775 321.8647416413375L302.53137827899775 344.50239247347935" stroke="#323232" stroke-width="2.0" stroke-dasharray="none" fill="none" marker-end="url(#ProcessOnMarker1119)"/></g><g id="ProcessOnG1121" transform="matrix(1.0,0.0,0.0,1.0,147.14285714285722,519.2857142857141)" opacity="1.0"><path id="ProcessOnPath1122" d="M12.59787588504777 0.0L0.0 0.0L0.0 246.42857142857167L12.59787588504777 246.42857142857167" stroke="#323232" stroke-width="2.0" stroke-dasharray="none" opacity="1.0" fill="none"/><path id="ProcessOnPath1123" d="M0.0 0.0L75.58725531028662 0.0L75.58725531028662 246.42857142857167L0.0 246.42857142857167Z" stroke="#323232" stroke-width="0.0" stroke-dasharray="none" opacity="1.0" fill="none"/><g id="ProcessOnG1124" transform="matrix(1.0,0.0,0.0,1.0,10.0,115.08928571428584)"><text id="ProcessOnText1125" fill="#000000" font-weight="normal" font-style="normal" text-decoration="none" font-family="微软雅黑" text-anchor="middle" font-size="13" x="26.79362765514331" y="13.325">Gui</text></g></g></g></g></svg>